<?xml version="1.0" encoding="UTF-8" standalone="no"?>
<!DOCTYPE svg PUBLIC "-//W3C//DTD SVG 1.1//EN"
 "http://www.w3.org/Graphics/SVG/1.1/DTD/svg11.dtd">
<!-- Generated by graphviz version 8.1.0 (20230707.0739)
 -->
<!-- Title: ReportPipelineSocial Pages: 1 -->
<svg width="645pt" height="871pt"
 viewBox="0.00 0.00 645.36 871.16" xmlns="http://www.w3.org/2000/svg" xmlns:xlink="http://www.w3.org/1999/xlink">
<g id="graph0" class="graph" transform="scale(1 1) rotate(0) translate(32.4 838.76)">
<title>ReportPipelineSocial</title>
<polygon fill="#f7f8fc" stroke="none" points="-32.4,32.4 -32.4,-838.76 612.96,-838.76 612.96,32.4 -32.4,32.4"/>
<text text-anchor="start" x="117.4" y="-780.56" font-family="Helvetica,sans-Serif" font-size="14.00"> &#160;&#160;&#160;&#160;&#160;</text>
<text text-anchor="start" x="139.9" y="-780.56" font-family="Helvetica,sans-Serif" font-weight="bold" font-size="24.00">Research Report AI Pipeline</text>
<text text-anchor="start" x="155.28" y="-766.06" font-family="Helvetica,sans-Serif" font-size="14.00"> &#160;&#160;&#160;&#160;&#160;</text>
<text text-anchor="start" x="177.78" y="-766.06" font-family="Helvetica,sans-Serif" font-size="13.00">Collect → Extract → Analyze → Deliver</text>
<text text-anchor="start" x="410.28" y="-766.06" font-family="Helvetica,sans-Serif" font-size="14.00"> &#160;&#160;&#160;</text>
<!-- chat -->
<g id="node1" class="node">
<title>chat</title>
<path fill="#eaf2ff" stroke="#b7ccff" stroke-width="1.4" d="M174.18,-760.36C174.18,-760.36 12,-760.36 12,-760.36 6,-760.36 0,-754.36 0,-748.36 0,-748.36 0,-718.44 0,-718.44 0,-712.44 6,-706.44 12,-706.44 12,-706.44 174.18,-706.44 174.18,-706.44 180.18,-706.44 186.18,-712.44 186.18,-718.44 186.18,-718.44 186.18,-748.36 186.18,-748.36 186.18,-754.36 180.18,-760.36 174.18,-760.36"/>
<text text-anchor="start" x="39.47" y="-735.1" font-family="Helvetica,sans-Serif" font-size="14.00" fill="#1e2a44"> &#160;&#160;&#160;&#160;&#160;</text>
<text text-anchor="start" x="61.97" y="-735.1" font-family="Helvetica,sans-Serif" font-weight="bold" font-size="14.00" fill="#1e2a44">Chat Reports</text>
<text text-anchor="start" x="15.84" y="-721.1" font-family="Helvetica,sans-Serif" font-size="14.00" fill="#1e2a44"> &#160;&#160;&#160;&#160;&#160;</text>
<text text-anchor="start" x="38.34" y="-721.1" font-family="Helvetica,sans-Serif" font-size="11.00" fill="#1e2a44">incoming research notes</text>
<text text-anchor="start" x="155.34" y="-721.1" font-family="Helvetica,sans-Serif" font-size="14.00" fill="#1e2a44"> &#160;&#160;&#160;</text>
</g>
<!-- collection -->
<g id="node3" class="node">
<title>collection</title>
<path fill="#eef7ff" stroke="#b9d8f7" stroke-width="1.4" d="M408.68,-659.44C408.68,-659.44 213.5,-659.44 213.5,-659.44 207.5,-659.44 201.5,-653.44 201.5,-647.44 201.5,-647.44 201.5,-617.52 201.5,-617.52 201.5,-611.52 207.5,-605.52 213.5,-605.52 213.5,-605.52 408.68,-605.52 408.68,-605.52 414.68,-605.52 420.68,-611.52 420.68,-617.52 420.68,-617.52 420.68,-647.44 420.68,-647.44 420.68,-653.44 414.68,-659.44 408.68,-659.44"/>
<text text-anchor="start" x="243.59" y="-634.18" font-family="Helvetica,sans-Serif" font-size="14.00" fill="#1e2a44"> &#160;&#160;&#160;&#160;&#160;</text>
<text text-anchor="start" x="266.09" y="-634.18" font-family="Helvetica,sans-Serif" font-weight="bold" font-size="14.00" fill="#1e2a44">Report Collection</text>
<text text-anchor="start" x="217.34" y="-620.18" font-family="Helvetica,sans-Serif" font-size="14.00" fill="#1e2a44"> &#160;&#160;&#160;&#160;&#160;</text>
<text text-anchor="start" x="239.84" y="-620.18" font-family="Helvetica,sans-Serif" font-size="11.00" fill="#1e2a44">capture new files and metadata</text>
<text text-anchor="start" x="389.84" y="-620.18" font-family="Helvetica,sans-Serif" font-size="14.00" fill="#1e2a44"> &#160;&#160;&#160;</text>
</g>
<!-- chat&#45;&gt;collection -->
<g id="edge1" class="edge">
<title>chat&#45;&gt;collection</title>
<path fill="none" stroke="#7a88a8" stroke-width="1.8" d="M186.57,-733C200.31,-733 209.94,-733 209.94,-733 209.94,-733 209.94,-669.68 209.94,-669.68"/>
<polygon fill="#7a88a8" stroke="#7a88a8" stroke-width="1.8" points="212.74,-669.68 209.94,-661.68 207.14,-669.68 212.74,-669.68"/>
</g>
<!-- email -->
<g id="node2" class="node">
<title>email</title>
<path fill="#eff6ff" stroke="#c2d8f8" stroke-width="1.4" d="M391.81,-760.36C391.81,-760.36 230.38,-760.36 230.38,-760.36 224.38,-760.36 218.38,-754.36 218.38,-748.36 218.38,-748.36 218.38,-718.44 218.38,-718.44 218.38,-712.44 224.38,-706.44 230.38,-706.44 230.38,-706.44 391.81,-706.44 391.81,-706.44 397.81,-706.44 403.81,-712.44 403.81,-718.44 403.81,-718.44 403.81,-748.36 403.81,-748.36 403.81,-754.36 397.81,-760.36 391.81,-760.36"/>
<text text-anchor="start" x="254.09" y="-735.1" font-family="Helvetica,sans-Serif" font-size="14.00" fill="#1e2a44"> &#160;&#160;&#160;&#160;&#160;</text>
<text text-anchor="start" x="276.59" y="-735.1" font-family="Helvetica,sans-Serif" font-weight="bold" font-size="14.00" fill="#1e2a44">Email Reports</text>
<text text-anchor="start" x="234.22" y="-721.1" font-family="Helvetica,sans-Serif" font-size="14.00" fill="#1e2a44"> &#160;&#160;&#160;&#160;&#160;</text>
<text text-anchor="start" x="256.72" y="-721.1" font-family="Helvetica,sans-Serif" font-size="11.00" fill="#1e2a44">attachments and digests</text>
<text text-anchor="start" x="372.97" y="-721.1" font-family="Helvetica,sans-Serif" font-size="14.00" fill="#1e2a44"> &#160;&#160;&#160;</text>
</g>
<!-- email&#45;&gt;collection -->
<g id="edge2" class="edge">
<title>email&#45;&gt;collection</title>
<path fill="none" stroke="#7a88a8" stroke-width="1.8" d="M311.09,-706.09C311.09,-706.09 311.09,-669.81 311.09,-669.81"/>
<polygon fill="#7a88a8" stroke="#7a88a8" stroke-width="1.8" points="313.89,-669.81 311.09,-661.81 308.29,-669.81 313.89,-669.81"/>
</g>
<!-- raw -->
<g id="node4" class="node">
<title>raw</title>
<path fill="#fff9ea" stroke="#f1d48f" stroke-width="1.4" d="M390.68,-558.52C390.68,-558.52 231.5,-558.52 231.5,-558.52 225.5,-558.52 219.5,-552.52 219.5,-546.52 219.5,-546.52 219.5,-516.6 219.5,-516.6 219.5,-510.6 225.5,-504.6 231.5,-504.6 231.5,-504.6 390.68,-504.6 390.68,-504.6 396.68,-504.6 402.68,-510.6 402.68,-516.6 402.68,-516.6 402.68,-546.52 402.68,-546.52 402.68,-552.52 396.68,-558.52 390.68,-558.52"/>
<text text-anchor="start" x="235.34" y="-533.26" font-family="Helvetica,sans-Serif" font-size="14.00" fill="#1e2a44"> &#160;&#160;&#160;&#160;&#160;</text>
<text text-anchor="start" x="257.84" y="-533.26" font-family="Helvetica,sans-Serif" font-weight="bold" font-size="14.00" fill="#1e2a44">Raw Reports / PDFs</text>
<text text-anchor="start" x="237.59" y="-519.26" font-family="Helvetica,sans-Serif" font-size="14.00" fill="#1e2a44"> &#160;&#160;&#160;&#160;&#160;</text>
<text text-anchor="start" x="260.09" y="-519.26" font-family="Helvetica,sans-Serif" font-size="11.00" fill="#1e2a44">source&#45;of&#45;truth storage</text>
<text text-anchor="start" x="369.59" y="-519.26" font-family="Helvetica,sans-Serif" font-size="14.00" fill="#1e2a44"> &#160;&#160;&#160;</text>
</g>
<!-- collection&#45;&gt;raw -->
<g id="edge3" class="edge">
<title>collection&#45;&gt;raw</title>
<path fill="none" stroke="#7a88a8" stroke-width="1.8" d="M311.09,-605.17C311.09,-605.17 311.09,-568.89 311.09,-568.89"/>
<polygon fill="#7a88a8" stroke="#7a88a8" stroke-width="1.8" points="313.89,-568.89 311.09,-560.89 308.29,-568.89 313.89,-568.89"/>
</g>
<!-- parse -->
<g id="node5" class="node">
<title>parse</title>
<path fill="#f7f2ff" stroke="#d7c3f2" stroke-width="1.4" d="M404.93,-457.6C404.93,-457.6 217.25,-457.6 217.25,-457.6 211.25,-457.6 205.25,-451.6 205.25,-445.6 205.25,-445.6 205.25,-415.68 205.25,-415.68 205.25,-409.68 211.25,-403.68 217.25,-403.68 217.25,-403.68 404.93,-403.68 404.93,-403.68 410.93,-403.68 416.93,-409.68 416.93,-415.68 416.93,-415.68 416.93,-445.6 416.93,-445.6 416.93,-451.6 410.93,-457.6 404.93,-457.6"/>
<text text-anchor="start" x="233.47" y="-432.34" font-family="Helvetica,sans-Serif" font-size="14.00" fill="#1e2a44"> &#160;&#160;&#160;&#160;&#160;</text>
<text text-anchor="start" x="255.97" y="-432.34" font-family="Helvetica,sans-Serif" font-weight="bold" font-size="14.00" fill="#1e2a44">Parsing &amp; Extraction</text>
<text text-anchor="start" x="221.09" y="-418.34" font-family="Helvetica,sans-Serif" font-size="14.00" fill="#1e2a44"> &#160;&#160;&#160;&#160;&#160;</text>
<text text-anchor="start" x="243.59" y="-418.34" font-family="Helvetica,sans-Serif" font-size="11.00" fill="#1e2a44">text, structure, and route hints</text>
<text text-anchor="start" x="386.09" y="-418.34" font-family="Helvetica,sans-Serif" font-size="14.00" fill="#1e2a44"> &#160;&#160;&#160;</text>
</g>
<!-- raw&#45;&gt;parse -->
<g id="edge4" class="edge">
<title>raw&#45;&gt;parse</title>
<path fill="none" stroke="#7a88a8" stroke-width="1.8" d="M311.09,-504.25C311.09,-504.25 311.09,-467.97 311.09,-467.97"/>
<polygon fill="#7a88a8" stroke="#7a88a8" stroke-width="1.8" points="313.89,-467.97 311.09,-459.97 308.29,-467.97 313.89,-467.97"/>
</g>
<!-- select -->
<g id="node6" class="node">
<title>select</title>
<path fill="#f4fbf6" stroke="#bfe0c8" stroke-width="1.4" d="M428.18,-356.68C428.18,-356.68 194,-356.68 194,-356.68 188,-356.68 182,-350.68 182,-344.68 182,-344.68 182,-314.76 182,-314.76 182,-308.76 188,-302.76 194,-302.76 194,-302.76 428.18,-302.76 428.18,-302.76 434.18,-302.76 440.18,-308.76 440.18,-314.76 440.18,-314.76 440.18,-344.68 440.18,-344.68 440.18,-350.68 434.18,-356.68 428.18,-356.68"/>
<text text-anchor="start" x="197.84" y="-331.42" font-family="Helvetica,sans-Serif" font-size="14.00" fill="#1e2a44"> &#160;&#160;&#160;&#160;&#160;</text>
<text text-anchor="start" x="220.34" y="-331.42" font-family="Helvetica,sans-Serif" font-weight="bold" font-size="14.00" fill="#1e2a44">Chunking &amp; Key Page Selection</text>
<text text-anchor="start" x="218.84" y="-317.42" font-family="Helvetica,sans-Serif" font-size="14.00" fill="#1e2a44"> &#160;&#160;&#160;&#160;&#160;</text>
<text text-anchor="start" x="241.34" y="-317.42" font-family="Helvetica,sans-Serif" font-size="11.00" fill="#1e2a44">focus the most useful evidence</text>
<text text-anchor="start" x="388.34" y="-317.42" font-family="Helvetica,sans-Serif" font-size="14.00" fill="#1e2a44"> &#160;&#160;&#160;</text>
</g>
<!-- parse&#45;&gt;select -->
<g id="edge5" class="edge">
<title>parse&#45;&gt;select</title>
<path fill="none" stroke="#7a88a8" stroke-width="1.8" d="M311.09,-403.33C311.09,-403.33 311.09,-367.05 311.09,-367.05"/>
<polygon fill="#7a88a8" stroke="#7a88a8" stroke-width="1.8" points="313.89,-367.05 311.09,-359.05 308.29,-367.05 313.89,-367.05"/>
</g>
<!-- sector -->
<g id="node7" class="node">
<title>sector</title>
<path fill="#f0faf7" stroke="#b8e2d6" stroke-width="1.4" d="M281.56,-255.76C281.56,-255.76 118.63,-255.76 118.63,-255.76 112.63,-255.76 106.63,-249.76 106.63,-243.76 106.63,-243.76 106.63,-213.84 106.63,-213.84 106.63,-207.84 112.63,-201.84 118.63,-201.84 118.63,-201.84 281.56,-201.84 281.56,-201.84 287.56,-201.84 293.56,-207.84 293.56,-213.84 293.56,-213.84 293.56,-243.76 293.56,-243.76 293.56,-249.76 287.56,-255.76 281.56,-255.76"/>
<text text-anchor="start" x="146.84" y="-230.5" font-family="Helvetica,sans-Serif" font-size="14.00" fill="#1e2a44"> &#160;&#160;&#160;&#160;&#160;</text>
<text text-anchor="start" x="169.34" y="-230.5" font-family="Helvetica,sans-Serif" font-weight="bold" font-size="14.00" fill="#1e2a44">Sector Agent</text>
<text text-anchor="start" x="122.47" y="-216.5" font-family="Helvetica,sans-Serif" font-size="14.00" fill="#1e2a44"> &#160;&#160;&#160;&#160;&#160;</text>
<text text-anchor="start" x="144.97" y="-216.5" font-family="Helvetica,sans-Serif" font-size="11.00" fill="#1e2a44">industry&#45;specific analysis</text>
<text text-anchor="start" x="262.72" y="-216.5" font-family="Helvetica,sans-Serif" font-size="14.00" fill="#1e2a44"> &#160;&#160;&#160;</text>
</g>
<!-- select&#45;&gt;sector -->
<g id="edge6" class="edge">
<title>select&#45;&gt;sector</title>
<path fill="none" stroke="#7a88a8" stroke-width="1.8" d="M237.78,-302.41C237.78,-302.41 237.78,-266.13 237.78,-266.13"/>
<polygon fill="#7a88a8" stroke="#7a88a8" stroke-width="1.8" points="240.58,-266.13 237.78,-258.13 234.98,-266.13 240.58,-266.13"/>
</g>
<!-- macro -->
<g id="node8" class="node">
<title>macro</title>
<path fill="#eef9fb" stroke="#b6dee8" stroke-width="1.4" d="M506.93,-255.76C506.93,-255.76 337.25,-255.76 337.25,-255.76 331.25,-255.76 325.25,-249.76 325.25,-243.76 325.25,-243.76 325.25,-213.84 325.25,-213.84 325.25,-207.84 331.25,-201.84 337.25,-201.84 337.25,-201.84 506.93,-201.84 506.93,-201.84 512.93,-201.84 518.93,-207.84 518.93,-213.84 518.93,-213.84 518.93,-243.76 518.93,-243.76 518.93,-249.76 512.93,-255.76 506.93,-255.76"/>
<text text-anchor="start" x="369.59" y="-230.5" font-family="Helvetica,sans-Serif" font-size="14.00" fill="#1e2a44"> &#160;&#160;&#160;&#160;&#160;</text>
<text text-anchor="start" x="392.09" y="-230.5" font-family="Helvetica,sans-Serif" font-weight="bold" font-size="14.00" fill="#1e2a44">Macro Agent</text>
<text text-anchor="start" x="341.09" y="-216.5" font-family="Helvetica,sans-Serif" font-size="14.00" fill="#1e2a44"> &#160;&#160;&#160;&#160;&#160;</text>
<text text-anchor="start" x="363.59" y="-216.5" font-family="Helvetica,sans-Serif" font-size="11.00" fill="#1e2a44">market and macro context</text>
<text text-anchor="start" x="488.09" y="-216.5" font-family="Helvetica,sans-Serif" font-size="14.00" fill="#1e2a44"> &#160;&#160;&#160;</text>
</g>
<!-- select&#45;&gt;macro -->
<g id="edge7" class="edge">
<title>select&#45;&gt;macro</title>
<path fill="none" stroke="#7a88a8" stroke-width="1.8" d="M382.72,-302.41C382.72,-302.41 382.72,-266.13 382.72,-266.13"/>
<polygon fill="#7a88a8" stroke="#7a88a8" stroke-width="1.8" points="385.52,-266.13 382.72,-258.13 379.92,-266.13 385.52,-266.13"/>
</g>
<!-- summaries -->
<g id="node9" class="node">
<title>summaries</title>
<path fill="#eef7ff" stroke="#b9dff0" stroke-width="1.4" d="M415.06,-154.84C415.06,-154.84 207.13,-154.84 207.13,-154.84 201.13,-154.84 195.13,-148.84 195.13,-142.84 195.13,-142.84 195.13,-112.92 195.13,-112.92 195.13,-106.92 201.13,-100.92 207.13,-100.92 207.13,-100.92 415.06,-100.92 415.06,-100.92 421.06,-100.92 427.06,-106.92 427.06,-112.92 427.06,-112.92 427.06,-142.84 427.06,-142.84 427.06,-148.84 421.06,-154.84 415.06,-154.84"/>
<text text-anchor="start" x="262.72" y="-129.58" font-family="Helvetica,sans-Serif" font-size="14.00" fill="#1e2a44"> &#160;&#160;&#160;&#160;&#160;</text>
<text text-anchor="start" x="285.22" y="-129.58" font-family="Helvetica,sans-Serif" font-weight="bold" font-size="14.00" fill="#1e2a44">Summaries</text>
<text text-anchor="start" x="210.97" y="-115.58" font-family="Helvetica,sans-Serif" font-size="14.00" fill="#1e2a44"> &#160;&#160;&#160;&#160;&#160;</text>
<text text-anchor="start" x="233.47" y="-115.58" font-family="Helvetica,sans-Serif" font-size="11.00" fill="#1e2a44">clear takeaways and key numbers</text>
<text text-anchor="start" x="396.22" y="-115.58" font-family="Helvetica,sans-Serif" font-size="14.00" fill="#1e2a44"> &#160;&#160;&#160;</text>
</g>
<!-- sector&#45;&gt;summaries -->
<g id="edge8" class="edge">
<title>sector&#45;&gt;summaries</title>
<path fill="none" stroke="#7a88a8" stroke-width="1.8" d="M244.34,-201.49C244.34,-201.49 244.34,-165.21 244.34,-165.21"/>
<polygon fill="#7a88a8" stroke="#7a88a8" stroke-width="1.8" points="247.14,-165.21 244.34,-157.21 241.54,-165.21 247.14,-165.21"/>
</g>
<!-- macro&#45;&gt;summaries -->
<g id="edge9" class="edge">
<title>macro&#45;&gt;summaries</title>
<path fill="none" stroke="#7a88a8" stroke-width="1.8" d="M376.15,-201.49C376.15,-201.49 376.15,-165.21 376.15,-165.21"/>
<polygon fill="#7a88a8" stroke="#7a88a8" stroke-width="1.8" points="378.95,-165.21 376.15,-157.21 373.35,-165.21 378.95,-165.21"/>
</g>
<!-- insights -->
<g id="node10" class="node">
<title>insights</title>
<path fill="#f8fafd" stroke="#d5d9e6" stroke-width="1.4" d="M387.68,-53.92C387.68,-53.92 234.5,-53.92 234.5,-53.92 228.5,-53.92 222.5,-47.92 222.5,-41.92 222.5,-41.92 222.5,-12 222.5,-12 222.5,-6 228.5,0 234.5,0 234.5,0 387.68,0 387.68,0 393.68,0 399.68,-6 399.68,-12 399.68,-12 399.68,-41.92 399.68,-41.92 399.68,-47.92 393.68,-53.92 387.68,-53.92"/>
<text text-anchor="start" x="244.34" y="-28.66" font-family="Helvetica,sans-Serif" font-size="14.00" fill="#1e2a44"> &#160;&#160;&#160;&#160;&#160;</text>
<text text-anchor="start" x="266.84" y="-28.66" font-family="Helvetica,sans-Serif" font-weight="bold" font-size="14.00" fill="#1e2a44">Insights / Signals</text>
<text text-anchor="start" x="238.34" y="-14.66" font-family="Helvetica,sans-Serif" font-size="14.00" fill="#1e2a44"> &#160;&#160;&#160;&#160;&#160;</text>
<text text-anchor="start" x="260.84" y="-14.66" font-family="Helvetica,sans-Serif" font-size="11.00" fill="#1e2a44">decision&#45;ready outputs</text>
<text text-anchor="start" x="368.84" y="-14.66" font-family="Helvetica,sans-Serif" font-size="14.00" fill="#1e2a44"> &#160;&#160;&#160;</text>
</g>
<!-- summaries&#45;&gt;insights -->
<g id="edge10" class="edge">
<title>summaries&#45;&gt;insights</title>
<path fill="none" stroke="#7a88a8" stroke-width="1.8" d="M311.09,-100.57C311.09,-100.57 311.09,-64.29 311.09,-64.29"/>
<polygon fill="#7a88a8" stroke="#7a88a8" stroke-width="1.8" points="313.89,-64.29 311.09,-56.29 308.29,-64.29 313.89,-64.29"/>
</g>
<!-- note -->
<g id="node11" class="node">
<title>note</title>
<polygon fill="#ffffff" stroke="#d8dded" stroke-width="1.4" points="574.56,-758.36 435.62,-758.36 435.62,-708.44 580.56,-708.44 580.56,-752.36 574.56,-758.36"/>
<polyline fill="none" stroke="#d8dded" stroke-width="1.4" points="574.56,-758.36 574.56,-752.36"/>
<polyline fill="none" stroke="#d8dded" stroke-width="1.4" points="580.56,-752.36 574.56,-752.36"/>
<text text-anchor="middle" x="508.09" y="-734.95" font-family="Helvetica,sans-Serif" font-size="11.00" fill="#4a5672">Simple end&#45;to&#45;end view</text>
<text text-anchor="middle" x="508.09" y="-722.95" font-family="Helvetica,sans-Serif" font-size="11.00" fill="#4a5672">for social sharing</text>
</g>
<!-- note&#45;&gt;collection -->
<g id="edge11" class="edge">
<title>note&#45;&gt;collection</title>
<path fill="none" stroke="#a3aec8" stroke-width="1.8" stroke-dasharray="1,5" d="M435.44,-733C422.08,-733 412.24,-733 412.24,-733 412.24,-733 412.24,-689.45 412.24,-659.68"/>
</g>
</g>
</svg>
