<?xml version="1.0" encoding="UTF-8" standalone="no"?>
<!DOCTYPE svg PUBLIC "-//W3C//DTD SVG 1.1//EN"
 "http://www.w3.org/Graphics/SVG/1.1/DTD/svg11.dtd">
<!-- Generated by graphviz version 8.1.0 (20230707.0739)
 -->
<!-- Title: ReportPipelineSocialV2 Pages: 1 -->
<svg width="1035pt" height="529pt"
 viewBox="0.00 0.00 1035.16 529.08" xmlns="http://www.w3.org/2000/svg" xmlns:xlink="http://www.w3.org/1999/xlink">
<g id="graph0" class="graph" transform="scale(1 1) rotate(0) translate(30.24 498.84)">
<title>ReportPipelineSocialV2</title>
<polygon fill="#f7f8fc" stroke="none" points="-30.24,30.24 -30.24,-498.84 1004.92,-498.84 1004.92,30.24 -30.24,30.24"/>
<text text-anchor="start" x="314.47" y="-442.8" font-family="Helvetica,sans-Serif" font-size="14.00"> &#160;&#160;&#160;&#160;&#160;</text>
<text text-anchor="start" x="336.97" y="-442.8" font-family="Helvetica,sans-Serif" font-weight="bold" font-size="24.00">Research Report AI Pipeline</text>
<text text-anchor="start" x="352.34" y="-428.3" font-family="Helvetica,sans-Serif" font-size="14.00"> &#160;&#160;&#160;&#160;&#160;</text>
<text text-anchor="start" x="374.84" y="-428.3" font-family="Helvetica,sans-Serif" font-size="13.00">Collect → Extract → Analyze → Deliver</text>
<text text-anchor="start" x="607.34" y="-428.3" font-family="Helvetica,sans-Serif" font-size="14.00"> &#160;&#160;&#160;</text>
<!-- chat -->
<g id="node1" class="node">
<title>chat</title>
<path fill="#eaf2ff" stroke="#b7ccff" stroke-width="1.4" d="M136.68,-422.6C136.68,-422.6 12,-422.6 12,-422.6 6,-422.6 0,-416.6 0,-410.6 0,-410.6 0,-383.68 0,-383.68 0,-377.68 6,-371.68 12,-371.68 12,-371.68 136.68,-371.68 136.68,-371.68 142.68,-371.68 148.68,-377.68 148.68,-383.68 148.68,-383.68 148.68,-410.6 148.68,-410.6 148.68,-416.6 142.68,-422.6 136.68,-422.6"/>
<text text-anchor="start" x="31.97" y="-397.34" font-family="Helvetica,sans-Serif" font-weight="bold" font-size="14.00" fill="#1e2a44">Chat Reports</text>
<text text-anchor="start" x="15.84" y="-386.19" font-family="Helvetica,sans-Serif" font-size="11.00" fill="#1e2a44">incoming research notes</text>
</g>
<!-- collection -->
<g id="node3" class="node">
<title>collection</title>
<path fill="#eef7ff" stroke="#b9d8f7" stroke-width="1.4" d="M336.18,-329.68C336.18,-329.68 178.5,-329.68 178.5,-329.68 172.5,-329.68 166.5,-323.68 166.5,-317.68 166.5,-317.68 166.5,-290.76 166.5,-290.76 166.5,-284.76 172.5,-278.76 178.5,-278.76 178.5,-278.76 336.18,-278.76 336.18,-278.76 342.18,-278.76 348.18,-284.76 348.18,-290.76 348.18,-290.76 348.18,-317.68 348.18,-317.68 348.18,-323.68 342.18,-329.68 336.18,-329.68"/>
<text text-anchor="start" x="201.09" y="-304.42" font-family="Helvetica,sans-Serif" font-weight="bold" font-size="14.00" fill="#1e2a44">Report Collection</text>
<text text-anchor="start" x="182.34" y="-293.27" font-family="Helvetica,sans-Serif" font-size="11.00" fill="#1e2a44">capture new files and metadata</text>
</g>
<!-- chat&#45;&gt;collection -->
<g id="edge1" class="edge">
<title>chat&#45;&gt;collection</title>
<path fill="none" stroke="#7a88a8" stroke-width="1.8" d="M149.03,-397C163.85,-397 174.94,-397 174.94,-397 174.94,-397 174.94,-340.06 174.94,-340.06"/>
<polygon fill="#7a88a8" stroke="#7a88a8" stroke-width="1.8" points="177.74,-340.06 174.94,-332.06 172.14,-340.06 177.74,-340.06"/>
</g>
<!-- email -->
<g id="node2" class="node">
<title>email</title>
<path fill="#eff6ff" stroke="#c2d8f8" stroke-width="1.4" d="M319.31,-422.6C319.31,-422.6 195.38,-422.6 195.38,-422.6 189.38,-422.6 183.38,-416.6 183.38,-410.6 183.38,-410.6 183.38,-383.68 183.38,-383.68 183.38,-377.68 189.38,-371.68 195.38,-371.68 195.38,-371.68 319.31,-371.68 319.31,-371.68 325.31,-371.68 331.31,-377.68 331.31,-383.68 331.31,-383.68 331.31,-410.6 331.31,-410.6 331.31,-416.6 325.31,-422.6 319.31,-422.6"/>
<text text-anchor="start" x="211.59" y="-397.34" font-family="Helvetica,sans-Serif" font-weight="bold" font-size="14.00" fill="#1e2a44">Email Reports</text>
<text text-anchor="start" x="199.22" y="-386.19" font-family="Helvetica,sans-Serif" font-size="11.00" fill="#1e2a44">attachments and digests</text>
</g>
<!-- email&#45;&gt;collection -->
<g id="edge2" class="edge">
<title>email&#45;&gt;collection</title>
<path fill="none" stroke="#7a88a8" stroke-width="1.8" d="M257.34,-371.26C257.34,-371.26 257.34,-339.96 257.34,-339.96"/>
<polygon fill="#7a88a8" stroke="#7a88a8" stroke-width="1.8" points="260.14,-339.96 257.34,-331.96 254.54,-339.96 260.14,-339.96"/>
</g>
<!-- raw -->
<g id="node4" class="node">
<title>raw</title>
<path fill="#fff9ea" stroke="#f1d48f" stroke-width="1.4" d="M325.68,-236.76C325.68,-236.76 189,-236.76 189,-236.76 183,-236.76 177,-230.76 177,-224.76 177,-224.76 177,-197.84 177,-197.84 177,-191.84 183,-185.84 189,-185.84 189,-185.84 325.68,-185.84 325.68,-185.84 331.68,-185.84 337.68,-191.84 337.68,-197.84 337.68,-197.84 337.68,-224.76 337.68,-224.76 337.68,-230.76 331.68,-236.76 325.68,-236.76"/>
<text text-anchor="start" x="192.84" y="-211.5" font-family="Helvetica,sans-Serif" font-weight="bold" font-size="14.00" fill="#1e2a44">Raw Reports / PDFs</text>
<text text-anchor="start" x="202.59" y="-200.35" font-family="Helvetica,sans-Serif" font-size="11.00" fill="#1e2a44">source&#45;of&#45;truth storage</text>
</g>
<!-- collection&#45;&gt;raw -->
<g id="edge3" class="edge">
<title>collection&#45;&gt;raw</title>
<path fill="none" stroke="#7a88a8" stroke-width="1.8" d="M257.34,-278.34C257.34,-278.34 257.34,-247.04 257.34,-247.04"/>
<polygon fill="#7a88a8" stroke="#7a88a8" stroke-width="1.8" points="260.14,-247.04 257.34,-239.04 254.54,-247.04 260.14,-247.04"/>
</g>
<!-- parse -->
<g id="node5" class="node">
<title>parse</title>
<path fill="#f7f2ff" stroke="#d7c3f2" stroke-width="1.4" d="M534.43,-236.76C534.43,-236.76 384.25,-236.76 384.25,-236.76 378.25,-236.76 372.25,-230.76 372.25,-224.76 372.25,-224.76 372.25,-197.84 372.25,-197.84 372.25,-191.84 378.25,-185.84 384.25,-185.84 384.25,-185.84 534.43,-185.84 534.43,-185.84 540.43,-185.84 546.43,-191.84 546.43,-197.84 546.43,-197.84 546.43,-224.76 546.43,-224.76 546.43,-230.76 540.43,-236.76 534.43,-236.76"/>
<text text-anchor="start" x="392.97" y="-211.5" font-family="Helvetica,sans-Serif" font-weight="bold" font-size="14.00" fill="#1e2a44">Parsing &amp; Extraction</text>
<text text-anchor="start" x="388.09" y="-200.35" font-family="Helvetica,sans-Serif" font-size="11.00" fill="#1e2a44">text, structure, and route hints</text>
</g>
<!-- raw&#45;&gt;parse -->
<g id="edge4" class="edge">
<title>raw&#45;&gt;parse</title>
<path fill="none" stroke="#7a88a8" stroke-width="1.8" d="M338.05,-211C338.05,-211 361.8,-211 361.8,-211"/>
<polygon fill="#7a88a8" stroke="#7a88a8" stroke-width="1.8" points="361.8,-213.8 369.8,-211 361.8,-208.2 361.8,-213.8"/>
</g>
<!-- select -->
<g id="node6" class="node">
<title>select</title>
<path fill="#f4fbf6" stroke="#bfe0c8" stroke-width="1.4" d="M805.18,-236.76C805.18,-236.76 593.5,-236.76 593.5,-236.76 587.5,-236.76 581.5,-230.76 581.5,-224.76 581.5,-224.76 581.5,-197.84 581.5,-197.84 581.5,-191.84 587.5,-185.84 593.5,-185.84 593.5,-185.84 805.18,-185.84 805.18,-185.84 811.18,-185.84 817.18,-191.84 817.18,-197.84 817.18,-197.84 817.18,-224.76 817.18,-224.76 817.18,-230.76 811.18,-236.76 805.18,-236.76"/>
<text text-anchor="start" x="597.34" y="-211.5" font-family="Helvetica,sans-Serif" font-weight="bold" font-size="14.00" fill="#1e2a44">Chunking &amp; Key Page Selection</text>
<text text-anchor="start" x="625.84" y="-200.35" font-family="Helvetica,sans-Serif" font-size="11.00" fill="#1e2a44">focus the most useful evidence</text>
</g>
<!-- parse&#45;&gt;select -->
<g id="edge5" class="edge">
<title>parse&#45;&gt;select</title>
<path fill="none" stroke="#7a88a8" stroke-width="1.8" d="M546.66,-211C546.66,-211 571.25,-211 571.25,-211"/>
<polygon fill="#7a88a8" stroke="#7a88a8" stroke-width="1.8" points="571.25,-213.8 579.25,-211 571.25,-208.2 571.25,-213.8"/>
</g>
<!-- sector -->
<g id="node7" class="node">
<title>sector</title>
<path fill="#f0faf7" stroke="#b8e2d6" stroke-width="1.4" d="M668.06,-143.84C668.06,-143.84 542.62,-143.84 542.62,-143.84 536.62,-143.84 530.62,-137.84 530.62,-131.84 530.62,-131.84 530.62,-104.92 530.62,-104.92 530.62,-98.92 536.62,-92.92 542.62,-92.92 542.62,-92.92 668.06,-92.92 668.06,-92.92 674.06,-92.92 680.06,-98.92 680.06,-104.92 680.06,-104.92 680.06,-131.84 680.06,-131.84 680.06,-137.84 674.06,-143.84 668.06,-143.84"/>
<text text-anchor="start" x="563.34" y="-118.58" font-family="Helvetica,sans-Serif" font-weight="bold" font-size="14.00" fill="#1e2a44">Sector Agent</text>
<text text-anchor="start" x="546.47" y="-107.43" font-family="Helvetica,sans-Serif" font-size="11.00" fill="#1e2a44">industry&#45;specific analysis</text>
</g>
<!-- select&#45;&gt;sector -->
<g id="edge6" class="edge">
<title>select&#45;&gt;sector</title>
<path fill="none" stroke="#7a88a8" stroke-width="1.8" d="M630.78,-185.42C630.78,-185.42 630.78,-154.12 630.78,-154.12"/>
<polygon fill="#7a88a8" stroke="#7a88a8" stroke-width="1.8" points="633.58,-154.12 630.78,-146.12 627.98,-154.12 633.58,-154.12"/>
</g>
<!-- macro -->
<g id="node8" class="node">
<title>macro</title>
<path fill="#eef9fb" stroke="#b6dee8" stroke-width="1.4" d="M859.43,-143.84C859.43,-143.84 727.25,-143.84 727.25,-143.84 721.25,-143.84 715.25,-137.84 715.25,-131.84 715.25,-131.84 715.25,-104.92 715.25,-104.92 715.25,-98.92 721.25,-92.92 727.25,-92.92 727.25,-92.92 859.43,-92.92 859.43,-92.92 865.43,-92.92 871.43,-98.92 871.43,-104.92 871.43,-104.92 871.43,-131.84 871.43,-131.84 871.43,-137.84 865.43,-143.84 859.43,-143.84"/>
<text text-anchor="start" x="752.09" y="-118.58" font-family="Helvetica,sans-Serif" font-weight="bold" font-size="14.00" fill="#1e2a44">Macro Agent</text>
<text text-anchor="start" x="731.09" y="-107.43" font-family="Helvetica,sans-Serif" font-size="11.00" fill="#1e2a44">market and macro context</text>
</g>
<!-- select&#45;&gt;macro -->
<g id="edge7" class="edge">
<title>select&#45;&gt;macro</title>
<path fill="none" stroke="#7a88a8" stroke-width="1.8" d="M766.22,-185.42C766.22,-185.42 766.22,-154.12 766.22,-154.12"/>
<polygon fill="#7a88a8" stroke="#7a88a8" stroke-width="1.8" points="769.02,-154.12 766.22,-146.12 763.42,-154.12 769.02,-154.12"/>
</g>
<!-- summaries -->
<g id="node9" class="node">
<title>summaries</title>
<path fill="#eef7ff" stroke="#b9dff0" stroke-width="1.4" d="M784.56,-50.92C784.56,-50.92 614.12,-50.92 614.12,-50.92 608.12,-50.92 602.12,-44.92 602.12,-38.92 602.12,-38.92 602.12,-12 602.12,-12 602.12,-6 608.12,0 614.12,0 614.12,0 784.56,0 784.56,0 790.56,0 796.56,-6 796.56,-12 796.56,-12 796.56,-38.92 796.56,-38.92 796.56,-44.92 790.56,-50.92 784.56,-50.92"/>
<text text-anchor="start" x="662.22" y="-25.66" font-family="Helvetica,sans-Serif" font-weight="bold" font-size="14.00" fill="#1e2a44">Summaries</text>
<text text-anchor="start" x="617.97" y="-14.51" font-family="Helvetica,sans-Serif" font-size="11.00" fill="#1e2a44">clear takeaways and key numbers</text>
</g>
<!-- sector&#45;&gt;summaries -->
<g id="edge8" class="edge">
<title>sector&#45;&gt;summaries</title>
<path fill="none" stroke="#7a88a8" stroke-width="1.8" d="M641.09,-92.5C641.09,-92.5 641.09,-61.2 641.09,-61.2"/>
<polygon fill="#7a88a8" stroke="#7a88a8" stroke-width="1.8" points="643.89,-61.2 641.09,-53.2 638.29,-61.2 643.89,-61.2"/>
</g>
<!-- macro&#45;&gt;summaries -->
<g id="edge9" class="edge">
<title>macro&#45;&gt;summaries</title>
<path fill="none" stroke="#7a88a8" stroke-width="1.8" d="M755.9,-92.5C755.9,-92.5 755.9,-61.2 755.9,-61.2"/>
<polygon fill="#7a88a8" stroke="#7a88a8" stroke-width="1.8" points="758.7,-61.2 755.9,-53.2 753.1,-61.2 758.7,-61.2"/>
</g>
<!-- insights -->
<g id="node10" class="node">
<title>insights</title>
<path fill="#f8fafd" stroke="#d5d9e6" stroke-width="1.4" d="M962.68,-50.92C962.68,-50.92 844,-50.92 844,-50.92 838,-50.92 832,-44.92 832,-38.92 832,-38.92 832,-12 832,-12 832,-6 838,0 844,0 844,0 962.68,0 962.68,0 968.68,0 974.68,-6 974.68,-12 974.68,-12 974.68,-38.92 974.68,-38.92 974.68,-44.92 968.68,-50.92 962.68,-50.92"/>
<text text-anchor="start" x="847.84" y="-25.66" font-family="Helvetica,sans-Serif" font-weight="bold" font-size="14.00" fill="#1e2a44">Insights / Signals</text>
<text text-anchor="start" x="849.34" y="-14.51" font-family="Helvetica,sans-Serif" font-size="11.00" fill="#1e2a44">decision&#45;ready outputs</text>
</g>
<!-- summaries&#45;&gt;insights -->
<g id="edge10" class="edge">
<title>summaries&#45;&gt;insights</title>
<path fill="none" stroke="#7a88a8" stroke-width="1.8" d="M796.86,-25C796.86,-25 821.51,-25 821.51,-25"/>
<polygon fill="#7a88a8" stroke="#7a88a8" stroke-width="1.8" points="821.51,-27.8 829.51,-25 821.51,-22.2 821.51,-27.8"/>
</g>
<!-- note -->
<g id="node11" class="node">
<title>note</title>
<polygon fill="#ffffff" stroke="#d8dded" stroke-width="1.4" points="504.81,-422.1 365.88,-422.1 365.88,-372.18 510.81,-372.18 510.81,-416.1 504.81,-422.1"/>
<polyline fill="none" stroke="#d8dded" stroke-width="1.4" points="504.81,-422.1 504.81,-416.1"/>
<polyline fill="none" stroke="#d8dded" stroke-width="1.4" points="510.81,-416.1 504.81,-416.1"/>
<text text-anchor="middle" x="438.34" y="-398.69" font-family="Helvetica,sans-Serif" font-size="11.00" fill="#4a5672">Simple end&#45;to&#45;end view</text>
<text text-anchor="middle" x="438.34" y="-386.69" font-family="Helvetica,sans-Serif" font-size="11.00" fill="#4a5672">for social sharing</text>
</g>
<!-- note&#45;&gt;collection -->
<g id="edge11" class="edge">
<title>note&#45;&gt;collection</title>
<path fill="none" stroke="#a3aec8" stroke-width="1.8" stroke-dasharray="1,5" d="M365.39,-397C350.74,-397 339.74,-397 339.74,-397 339.74,-397 339.74,-357.52 339.74,-330.06"/>
</g>
</g>
</svg>
